<svg width="23" height="22" viewBox="0 0 23 22" fill="none" xmlns="http://www.w3.org/2000/svg">
<path d="M3.07155 8.08706C1.12711 11.3146 2.36323 16.2125 4.51346 19.1823C5.58677 20.667 6.67343 21.9998 8.16179 21.9998C8.18984 21.9998 8.21797 21.9993 8.24678 21.9982C8.94605 21.9715 9.45137 21.7656 9.93995 21.5666C10.4885 21.343 11.0558 21.1118 11.9456 21.1118C12.7922 21.1118 13.3324 21.3355 13.8549 21.5517C14.3698 21.7648 14.9001 21.9852 15.6838 21.9711C17.3603 21.9413 18.3896 20.5031 19.2978 19.2344C20.2455 17.9097 20.7208 16.6236 20.8812 16.1321L20.8877 16.1125C20.9025 16.0703 20.9004 16.0244 20.882 15.9836C20.8635 15.9428 20.8299 15.9099 20.7876 15.8914C20.7852 15.8903 20.7763 15.8867 20.7738 15.8857C20.4786 15.7703 17.8888 14.6713 17.8616 11.6762C17.8363 9.24274 19.8044 7.95412 20.1991 7.72056L20.2175 7.70959C20.2387 7.69656 20.2569 7.67959 20.2711 7.6597C20.2853 7.63981 20.2952 7.6174 20.3002 7.59379C20.3052 7.57018 20.3052 7.54585 20.3002 7.52224C20.2952 7.49863 20.2852 7.47622 20.271 7.45634C18.9126 5.55482 16.8305 5.26824 15.9923 5.23376C15.8682 5.22205 15.7436 5.21623 15.619 5.21631C14.6344 5.21631 13.6913 5.57199 12.9336 5.85777C12.4105 6.05505 11.9587 6.22542 11.6472 6.22542C11.297 6.22542 10.8427 6.05296 10.3166 5.8533C9.61298 5.5862 8.81552 5.28354 7.9713 5.28354C7.95117 5.28354 7.93134 5.28375 7.91181 5.28411C5.94889 5.31174 4.09411 6.38592 3.07155 8.08706Z" fill="black"/>
<path d="M15.9926 0.000112691C14.8039 0.0464209 13.378 0.746309 12.5257 1.70118C11.8014 2.50378 11.0938 3.84196 11.2802 5.19081C11.2859 5.23177 11.3061 5.26963 11.3374 5.29804C11.3688 5.32646 11.4094 5.34371 11.4525 5.34691C11.5327 5.35289 11.6146 5.35592 11.6962 5.35599C12.8585 5.35599 14.1123 4.74093 14.9686 3.75057C15.8698 2.70481 16.3255 1.36274 16.1877 0.160604C16.1822 0.115293 16.1591 0.0736149 16.1229 0.0438724C16.0868 0.0141299 16.0402 -0.00149408 15.9926 0.000112691Z" fill="black"/>
</svg>
