<svg width="46" height="36" viewBox="0 0 46 36" fill="none" xmlns="http://www.w3.org/2000/svg">
<path d="M45.3051 25.4946C45.3051 26.0625 45.3051 26.6305 45.3051 27.1984C45.2768 27.3144 45.2543 27.4315 45.22 27.5453C44.9434 28.4655 44.8051 29.4475 44.363 30.294C42.3902 34.0658 39.065 35.98 34.4998 35.9897C25.7418 36.0092 16.985 35.9962 8.22698 35.993C7.80025 35.993 7.36879 35.9886 6.94679 35.9398C3.64525 35.5583 0.931207 33.306 0.19832 30.3557C-0.539296 27.3816 0.81891 24.3164 3.6358 22.6451C3.90531 22.4847 3.92659 22.347 3.83793 22.088C3.42657 20.8849 3.31309 19.6482 3.47267 18.4007C4.20674 12.6529 10.5143 8.98835 16.5062 10.8342C16.8632 10.9437 17.0098 10.8548 17.2273 10.6239C20.2274 7.43625 24.0112 6.14428 28.4759 7.14361C32.9347 8.14077 35.6748 10.8602 36.7256 14.9659C36.8923 15.6162 36.9313 16.2947 37.0294 16.957C37.1488 16.9873 37.2623 17.0166 37.3758 17.0448C41.1135 17.9921 43.5982 20.162 44.8252 23.5252C45.0569 24.1604 45.1491 24.8367 45.3051 25.4946ZM23.3859 26.0907C26.1118 26.0788 28.3258 24.0379 28.2974 21.5645C28.2691 19.0911 26.0657 17.0881 23.3706 17.0849C20.6707 17.0805 18.4602 19.128 18.472 21.6198C18.4839 24.0942 20.692 26.1026 23.3859 26.0907ZM13.7142 26.0669C14.6137 26.0625 15.6859 25.6897 16.5429 24.8551C17.1339 24.2796 17.1469 23.5415 16.5925 23.0483C16.044 22.5616 15.2662 22.6299 14.6185 23.1578C14.3584 23.3702 14.0026 23.5588 13.6657 23.6065C12.3867 23.7853 11.1952 22.8326 11.1597 21.6425C11.1361 20.8502 11.5001 20.2237 12.233 19.8054C12.9695 19.3848 13.726 19.4076 14.5085 19.7414C14.8549 19.8899 15.2544 20.0254 15.6244 20.0156C16.1788 20.0015 16.6079 19.5734 16.7155 19.0922C16.8349 18.5557 16.5937 18.0777 16.0381 17.7525C14.2958 16.7304 12.025 16.8421 10.3724 18.03C8.75064 19.1962 8.09813 21.1971 8.75655 22.9822C9.43388 24.8183 11.2767 26.0474 13.7142 26.0669ZM33.9064 28.4709C34.274 27.994 34.605 27.6125 34.8781 27.1995C35.228 26.6706 35.6109 26.1438 35.8414 25.5694C36.481 23.9728 35.488 22.282 33.7149 21.8409C31.9501 21.4019 30.158 22.411 29.7821 24.0552C29.6426 24.6665 30.0209 25.2822 30.6545 25.474C31.2916 25.6669 31.9985 25.3797 32.2799 24.8096C32.3224 24.724 32.3496 24.6318 32.3815 24.5419C32.495 24.2243 32.7468 24.1105 33.0718 24.2178C33.4016 24.3262 33.4572 24.5874 33.3142 24.8519C33.138 25.177 32.9442 25.4989 32.7149 25.7937C31.9524 26.7725 31.1699 27.7382 30.3968 28.7094C30.1202 29.0562 29.9169 29.4247 30.0245 29.8756C30.171 30.488 30.6427 30.8673 31.4311 30.889C32.6392 30.9215 33.8497 30.9204 35.0577 30.8923C35.8237 30.8749 36.3746 30.3156 36.3616 29.6599C36.3486 28.9803 35.7682 28.4839 34.9655 28.472C34.6487 28.4666 34.3296 28.4709 33.9064 28.4709Z" fill="white"/>
<path d="M45.3061 9.91703C45.2233 10.1587 45.1512 10.4037 45.0567 10.6421C44.3687 12.3861 42.3603 13.3778 40.4076 12.9399C38.4311 12.4966 37.0989 10.7603 37.3661 8.97407C37.651 7.06863 39.352 5.71162 41.4052 5.75389C43.254 5.79183 44.7871 6.94073 45.2115 8.6023C45.234 8.69118 45.2742 8.77572 45.3061 8.86243C45.3061 9.2136 45.3061 9.56586 45.3061 9.91703Z" fill="white"/>
<path d="M45.3061 1.88451C45.2482 1.97339 45.1891 2.06227 45.1312 2.15114C44.825 2.63455 44.2245 2.87517 43.6666 2.73752C43.0625 2.58903 42.6535 2.11321 42.6523 1.55935C42.6523 1.0055 43.0625 0.528592 43.6666 0.381186C44.2245 0.244618 44.825 0.485237 45.1312 0.968643C45.1879 1.0586 45.247 1.14748 45.3049 1.23636C45.3061 1.45205 45.3061 1.66882 45.3061 1.88451Z" fill="white"/>
<path d="M23.3866 26.0905C20.6927 26.1024 18.4857 24.094 18.4727 21.6184C18.4597 19.1266 20.6702 17.0792 23.3712 17.0835C26.0664 17.0878 28.2698 19.0908 28.2981 21.5631C28.3253 24.0376 26.1113 26.0785 23.3866 26.0905ZM23.3795 23.6561C24.6254 23.6518 25.6349 22.7348 25.6432 21.6C25.6503 20.4598 24.6006 19.5038 23.3559 19.5168C22.1171 19.5309 21.1229 20.4598 21.1277 21.6011C21.1324 22.7489 22.1312 23.6604 23.3795 23.6561Z" fill="#2A66A9"/>
<path d="M13.7152 26.0665C11.2778 26.048 9.43495 24.8189 8.75762 22.9818C8.0992 21.1966 8.75171 19.1958 10.3735 18.0296C12.0261 16.8416 14.2968 16.73 16.0392 17.7521C16.5948 18.0773 16.8359 18.5552 16.7165 19.0918C16.609 19.5719 16.1811 20.0011 15.6255 20.0152C15.2543 20.025 14.856 19.8884 14.5096 19.741C13.7271 19.4072 12.9705 19.3855 12.2341 19.8049C11.5 20.2233 11.1371 20.8509 11.1608 21.6421C11.1951 22.8333 12.3878 23.7849 13.6668 23.6061C14.0037 23.5595 14.3595 23.3709 14.6195 23.1574C15.2661 22.6295 16.0439 22.5601 16.5936 23.0479C17.1492 23.541 17.135 24.2781 16.544 24.8547C15.6869 25.6882 14.6148 26.0621 13.7152 26.0665Z" fill="#2A66A9"/>
<path d="M33.9023 28.4706C34.3255 28.4706 34.6447 28.4662 34.9626 28.4717C35.7653 28.4847 36.3457 28.98 36.3587 29.6596C36.3717 30.3153 35.8208 30.8746 35.0548 30.8919C33.8468 30.9201 32.6363 30.9212 31.4282 30.8887C30.6398 30.867 30.1681 30.4877 30.0216 29.8753C29.914 29.4244 30.1173 29.0559 30.3939 28.709C31.167 27.7379 31.9495 26.7722 32.712 25.7934C32.9413 25.4986 33.1351 25.1767 33.3113 24.8515C33.4543 24.5871 33.3987 24.3259 33.0689 24.2175C32.7439 24.1102 32.4921 24.2251 32.3786 24.5416C32.3467 24.6315 32.3195 24.7236 32.277 24.8093C31.9956 25.3783 31.2887 25.6666 30.6516 25.4737C30.018 25.2818 29.6386 24.6662 29.7792 24.0549C30.1551 22.4118 31.9483 21.4016 33.712 21.8406C35.4851 22.2817 36.4781 23.9725 35.8385 25.5691C35.608 26.1435 35.2251 26.6714 34.8752 27.1992C34.6009 27.6122 34.2699 27.9937 33.9023 28.4706Z" fill="#2A66A9"/>
<path d="M12.8276 0.0732967C15.0251 0.062458 16.8041 1.66984 16.8183 3.67825C16.8337 5.71267 15.0795 7.34714 12.8631 7.3634C10.6762 7.37966 8.85701 5.72025 8.85938 3.71076C8.86174 1.71211 10.6372 0.0841354 12.8276 0.0732967Z" fill="white"/>
<path d="M29.2661 1.23835C29.9836 1.27195 30.5569 1.84749 30.5262 2.50214C30.4955 3.15897 29.8725 3.69006 29.1585 3.66839C28.4256 3.64563 27.8346 3.05383 27.8772 2.38292C27.9185 1.72718 28.5533 1.20475 29.2661 1.23835Z" fill="white"/>
<path d="M5.83553 8.38964C5.82608 9.04755 5.22085 9.59274 4.50451 9.59057C3.77045 9.58732 3.16286 9.01178 3.18414 8.33979C3.20541 7.68404 3.82246 7.14536 4.53761 7.15945C5.25513 7.17354 5.84617 7.73282 5.83553 8.38964Z" fill="white"/>
<path d="M23.3769 23.6559C22.1286 23.6603 21.1297 22.7487 21.125 21.602C21.1203 20.4607 22.1144 19.5318 23.3532 19.5177C24.5968 19.5036 25.6476 20.4607 25.6405 21.6009C25.6323 22.7347 24.6228 23.6527 23.3769 23.6559Z" fill="white"/>
</svg>
