<svg width="39" height="33" viewBox="0 0 39 33" fill="none" xmlns="http://www.w3.org/2000/svg">
<path d="M19.379 15.5503C19.379 15.5503 19.5242 13.9354 20.2484 13.2022C20.2484 13.2022 14.5013 -1.81944 37.3212 0.183948C37.3212 0.183948 39.961 16.2339 25.3997 16.4891C25.3997 16.4891 26.7133 12.0234 30.2815 9.04114C30.8078 8.60124 30.5131 7.79378 30.0668 7.28532C29.5342 6.67783 28.5258 6.64546 27.9532 7.22248C25.8207 9.3687 21.3852 14.6552 20.9136 21.8804H17.7348C17.7348 21.8804 18.4759 14.5048 8.81322 8.95735C8.20483 8.60885 7.40698 8.69836 6.91227 9.17255C6.36072 9.70196 6.36914 10.5304 6.92911 11.0503L12.1709 15.9216C12.1709 15.9216 1.21573 18.9762 1.64097 2.9548C1.64097 2.9548 16.5433 0.875228 16.457 11.6596C16.4591 11.6615 18.8085 12.9679 19.379 15.5503Z" fill="white"/>
<path d="M39 33.0001H0C0.938897 28.8296 5.01447 25.6912 9.90263 25.6912C10.871 25.6912 11.8057 25.8149 12.6919 26.0435C14.3698 24.918 16.4496 24.2515 18.7021 24.2515C20.9378 24.2515 23.003 24.9066 24.6745 26.0187C26.3838 26.1235 27.9732 26.611 29.3437 27.3899C29.4531 27.386 29.5626 27.3841 29.6742 27.3841C33.874 27.3841 37.4738 29.7018 39 33.0001Z" fill="white"/>
</svg>
