<svg width="23" height="22" viewBox="0 0 23 22" fill="none" xmlns="http://www.w3.org/2000/svg">
<g clip-path="url(#clip0_269_3783)">
<path d="M23 11C23 16.4905 18.7944 21.0414 13.2969 21.8664V14.1797H15.9765L16.4863 11H13.2969V8.93664C13.2969 8.06652 13.7425 7.21875 15.171 7.21875H16.6211V4.51172C16.6211 4.51172 15.3049 4.29688 14.0466 4.29688C11.42 4.29688 9.70312 5.81969 9.70312 8.57656V11H6.7832V14.1797H9.70312V21.8664C4.20559 21.0414 0 16.4905 0 11C0 4.92508 5.14894 0 11.5 0C17.8511 0 23 4.92508 23 11Z" fill="#1877F2"/>
<path d="M15.9745 14.1797L16.4844 11H13.2949V8.9366C13.2949 8.0667 13.7405 7.21875 15.169 7.21875H16.6191V4.51172C16.6191 4.51172 15.3031 4.29688 14.0449 4.29688C11.418 4.29688 9.70117 5.81969 9.70117 8.57656V11H6.78125V14.1797H9.70117V21.8663C10.2867 21.9542 10.8868 22 11.498 22C12.1093 22 12.7094 21.9542 13.2949 21.8663V14.1797H15.9745Z" fill="white"/>
</g>
<defs>
<clipPath id="clip0_269_3783">
<rect width="23" height="22" fill="white"/>
</clipPath>
</defs>
</svg>
