<svg width="23" height="22" viewBox="0 0 23 22" fill="none" xmlns="http://www.w3.org/2000/svg">
<g clip-path="url(#clip0_269_3771)">
<path d="M22.1315 9.08783L12.7501 9.0874C12.3358 9.0874 12 9.40855 12 9.80481V12.6715C12 13.0676 12.3358 13.3889 12.75 13.3889H18.0331C17.4546 14.8249 16.3749 16.0276 14.9973 16.7917L17.25 20.5218C20.8636 18.5228 23 15.0153 23 11.0889C23 10.5298 22.9569 10.1302 22.8707 9.68016C22.8052 9.33825 22.4949 9.08783 22.1315 9.08783Z" fill="#167EE6"/>
<path d="M11.5011 17.6959C8.91564 17.6959 6.65858 16.3447 5.44636 14.3452L1.54688 16.4951C3.5313 19.7849 7.24876 22.0002 11.5011 22.0002C13.5871 22.0002 15.5554 21.463 17.2511 20.5267V20.5216L14.9984 16.7915C13.968 17.3632 12.7755 17.6959 11.5011 17.6959Z" fill="#12B347"/>
<path d="M17.25 20.5267V20.5216L14.9973 16.7915C13.9669 17.3631 12.7746 17.6959 11.5 17.6959V22.0002C13.586 22.0002 15.5545 21.463 17.25 20.5267Z" fill="#0F993E"/>
<path d="M4.5 11.0003C4.5 9.78128 4.84779 8.64084 5.44529 7.65527L1.54581 5.50537C0.561613 7.12216 0 8.9998 0 11.0003C0 13.0007 0.561613 14.8784 1.54581 16.4951L5.44529 14.3452C4.84779 13.3597 4.5 12.2192 4.5 11.0003Z" fill="#FFD500"/>
<path d="M11.5011 4.30435C13.187 4.30435 14.7357 4.87738 15.9453 5.83056C16.2437 6.06568 16.6774 6.04871 16.9508 5.78725L19.0742 3.75611C19.3844 3.45946 19.3623 2.97387 19.031 2.69895C17.0043 1.0172 14.3674 0 11.5011 0C7.24876 0 3.5313 2.21534 1.54688 5.50511L5.44636 7.65501C6.65858 5.65555 8.91564 4.30435 11.5011 4.30435Z" fill="#FF4B26"/>
<path d="M15.9442 5.83056C16.2426 6.06568 16.6764 6.04871 16.9497 5.78725L19.0732 3.75611C19.3833 3.45946 19.3611 2.97387 19.0299 2.69895C17.0032 1.01716 14.3663 0 11.5 0V4.30435C13.1859 4.30435 14.7346 4.87738 15.9442 5.83056Z" fill="#D93F21"/>
</g>
<defs>
<clipPath id="clip0_269_3771">
<rect width="23" height="22" fill="white"/>
</clipPath>
</defs>
</svg>
